<?xml version="1.0" encoding="UTF-8"?>
<svg width="600" height="400" viewBox="0 0 600 400" xmlns="http://www.w3.org/2000/svg">
    <style>
        .primary { fill: #2563eb; }
        .secondary { fill: #1e40af; }
        .accent { fill: #3b82f6; }
        .light { fill: #f3f4f6; }
        .dark { fill: #1f2937; }
    </style>
    
    <!-- Background Elements -->
    <circle class="light" cx="300" cy="200" r="180" opacity="0.1"/>
    <circle class="light" cx="300" cy="200" r="150" opacity="0.2"/>
    
    <!-- Main Trophy -->
    <path class="primary" d="M250 100 L350 100 L340 200 L260 200 Z"/>
    <path class="secondary" d="M270 120 L330 120 L320 180 L280 180 Z"/>
    <circle class="accent" cx="300" cy="140" r="20"/>
    
    <!-- Sports Elements -->
    <g transform="translate(200, 250)">
        <!-- Football -->
        <ellipse class="dark" cx="0" cy="0" rx="30" ry="20" transform="rotate(-30)"/>
        <path class="light" d="M-20 0 L20 0 M0 -15 L0 15" stroke-width="2"/>
        
        <!-- Basketball -->
        <circle class="primary" cx="100" cy="0" r="25"/>
        <path class="light" d="M75 0 L125 0 M100 -25 L100 25" stroke-width="2"/>
        
        <!-- Baseball -->
        <circle class="secondary" cx="200" cy="0" r="20"/>
        <path class="light" d="M180 0 L220 0 M200 -20 L200 20" stroke-width="2"/>
    </g>
    
    <!-- Decorative Elements -->
    <g transform="translate(300, 200)">
        <circle class="accent" cx="-150" cy="-100" r="10" opacity="0.5"/>
        <circle class="accent" cx="150" cy="-100" r="10" opacity="0.5"/>
        <circle class="accent" cx="-150" cy="100" r="10" opacity="0.5"/>
        <circle class="accent" cx="150" cy="100" r="10" opacity="0.5"/>
    </g>
</svg> 