<?xml version="1.0" encoding="UTF-8"?>
<svg width="1920" height="1080" viewBox="0 0 1920 1080" xmlns="http://www.w3.org/2000/svg">
    <!-- Dark background -->
    <rect width="100%" height="100%" fill="#1a1a1a"/>
    
    <!-- Decorative patterns -->
    <defs>
        <pattern id="cardPattern" x="0" y="0" width="200" height="200" patternUnits="userSpaceOnUse">
            <path d="M0,100 L200,100 M100,0 L100,200" stroke="#333" stroke-width="2" opacity="0.3"/>
            <circle cx="100" cy="100" r="40" fill="none" stroke="#444" stroke-width="2"/>
            <path d="M60,100 L140,100 M100,60 L100,140" stroke="#444" stroke-width="2"/>
        </pattern>
    </defs>
    
    <!-- Pattern background -->
    <rect width="100%" height="100%" fill="url(#cardPattern)"/>
    
    <!-- Diagonal lines -->
    <g opacity="0.2">
        <line x1="0" y1="0" x2="1920" y2="1080" stroke="#FFD700" stroke-width="2"/>
        <line x1="480" y1="0" x2="2400" y2="1080" stroke="#FFD700" stroke-width="2"/>
        <line x1="-480" y1="0" x2="1440" y2="1080" stroke="#FFD700" stroke-width="2"/>
    </g>
    
    <!-- Poker symbols -->
    <g fill="#FFD700" opacity="0.15">
        <path d="M960,200 l40,40 l-40,40 l-40,-40 z"/>
        <path d="M1200,400 a40,40 0 1,1 0,-0.1"/>
        <path d="M720,400 l40,-40 l40,40 l-40,40 z"/>
        <path d="M960,600 l40,-40 l-0,80 l-80,-0 z"/>
    </g>
</svg> 