<?xml version="1.0" encoding="UTF-8"?>
<svg width="1920" height="400" viewBox="0 0 1920 400" xmlns="http://www.w3.org/2000/svg">
    <!-- Dark gradient background -->
    <defs>
        <linearGradient id="bgGradient" x1="0%" y1="0%" x2="100%" y2="100%">
            <stop offset="0%" style="stop-color:#2a2a2a"/>
            <stop offset="100%" style="stop-color:#1a1a1a"/>
        </linearGradient>
        
        <!-- Decorative pattern -->
        <pattern id="ctaPattern" x="0" y="0" width="40" height="40" patternUnits="userSpaceOnUse">
            <circle cx="20" cy="20" r="1" fill="#FFD700" opacity="0.3"/>
        </pattern>
    </defs>
    
    <!-- Background -->
    <rect width="100%" height="100%" fill="url(#bgGradient)"/>
    
    <!-- Pattern overlay -->
    <rect width="100%" height="100%" fill="url(#ctaPattern)"/>
    
    <!-- Decorative elements -->
    <g opacity="0.1">
        <path d="M0,200 Q480,100 960,200 T1920,200" stroke="#FFD700" stroke-width="2" fill="none"/>
        <path d="M0,220 Q480,120 960,220 T1920,220" stroke="#FFD700" stroke-width="2" fill="none"/>
        <path d="M0,180 Q480,80 960,180 T1920,180" stroke="#FFD700" stroke-width="2" fill="none"/>
    </g>
    
    <!-- Corner accents -->
    <path d="M0,0 L100,0 L100,2 L2,2 L2,100 L0,100 Z" fill="#FFD700" opacity="0.3"/>
    <path d="M1920,0 L1820,0 L1820,2 L1918,2 L1918,100 L1920,100 Z" fill="#FFD700" opacity="0.3"/>
    <path d="M0,400 L100,400 L100,398 L2,398 L2,300 L0,300 Z" fill="#FFD700" opacity="0.3"/>
    <path d="M1920,400 L1820,400 L1820,398 L1918,398 L1918,300 L1920,300 Z" fill="#FFD700" opacity="0.3"/>
</svg> 